<svg width="70" height="70" viewBox="0 0 70 70" fill="none" xmlns="http://www.w3.org/2000/svg">
<g clip-path="url(#clip0_36_14155)">
<path d="M35 11.2234C15.2338 11.2234 0 21.2859 0 35.0001C0 48.7142 15.2367 58.7767 35 58.7767C54.7633 58.7767 70 48.7142 70 35.0001C70 21.2859 54.7663 11.2234 35 11.2234ZM56.3908 22.4205C56.3908 25.5705 51.3596 28.0001 43.3008 28.9713C42.5425 21.4463 40.3696 16.4909 37.5754 14.6417C46.1738 15.1784 56.3879 18.2205 56.3879 22.4205H56.3908ZM35 47.8363C32.2 47.8363 29.9075 43.4613 29.7267 35.0351C31.4096 35.1721 33.1683 35.2451 35 35.2451C36.8317 35.2451 38.5875 35.1721 40.2704 35.0351C40.0925 43.4642 37.8 47.8363 35 47.8363ZM35 29.438C33.2792 29.438 31.6313 29.3826 30.0708 29.2805C30.8321 24.2405 32.7542 20.093 35 20.093C37.2458 20.093 39.165 24.2405 39.9263 29.2805C38.3658 29.3796 36.7208 29.438 35 29.438ZM32.4275 14.6359C29.6392 16.4821 27.4517 21.4405 26.6992 28.9713C18.6404 28.0001 13.6062 25.5705 13.6062 22.4205C13.6062 18.2205 23.8263 15.158 32.4275 14.6359ZM5.94125 34.0667C5.93388 30.7408 7.00654 27.5023 8.99792 24.8384C9.78542 29.3505 16.3538 33.2413 26.4163 34.6676V35.0001C26.4163 46.0017 28.98 53.0921 32.5033 55.3292C17.6079 54.393 5.94125 45.1792 5.94125 34.0667ZM37.5083 55.3292C41.0288 53.0921 43.5954 46.0017 43.5954 35.0001V34.6646C53.6492 33.2413 60.2321 29.3388 61.0138 24.8355C63.0077 27.4993 64.0816 30.7393 64.0733 34.0667C64.0617 45.1792 52.3833 54.393 37.5054 55.3292H37.5083Z" fill="#222222"/>
</g>
<defs>
<clipPath id="clip0_36_14155">
<rect width="70" height="70" fill="white"/>
</clipPath>
</defs>
</svg>
