<svg width="92" height="150" viewBox="0 0 92 150" fill="none" xmlns="http://www.w3.org/2000/svg">
<path d="M29.5111 23.5902C29.1559 22.7564 28.5666 22.0434 27.8145 21.5375C27.0624 21.0317 26.1798 20.7548 25.2736 20.7402H10.2736C9.87958 20.7179 9.48605 20.7915 9.12679 20.9548C8.76753 21.1181 8.45329 21.3662 8.21108 21.6777C8.01062 22.0324 7.90528 22.4329 7.90528 22.8402C7.90528 23.2476 8.01062 23.6481 8.21108 24.0027L18.4486 41.7402L2.32358 70.2027C2.11188 70.5536 2 70.9555 2 71.3652C2 71.775 2.11188 72.1769 2.32358 72.5277C2.52478 72.8614 2.8119 73.1348 3.15493 73.3195C3.49796 73.5042 3.8843 73.5934 4.27358 73.5777H19.2736C20.1725 73.5496 21.0433 73.2572 21.7769 72.737C22.5106 72.2167 23.0746 71.4918 23.3986 70.6527L39.7486 41.7402L29.5111 23.5902ZM91.0486 3.30275C91.2422 2.94587 91.3437 2.54628 91.3437 2.14025C91.3437 1.73422 91.2422 1.33462 91.0486 0.977748C90.8269 0.660308 90.5282 0.404335 90.1806 0.233808C89.833 0.0632796 89.4478 -0.0162231 89.0611 0.00274773H73.7611C72.8757 0.0277556 72.0177 0.315698 71.2965 0.829911C70.5752 1.34412 70.0234 2.06134 69.7111 2.89025C69.7111 2.89025 37.0861 60.7527 35.9611 62.6277L57.4861 102.115C57.8369 102.948 58.419 103.662 59.1634 104.174C59.9077 104.686 60.7832 104.973 61.6861 105.003H76.6861C77.0799 105.036 77.4755 104.963 77.8316 104.792C78.1877 104.62 78.4914 104.356 78.7111 104.028C78.9151 103.674 79.0226 103.273 79.0226 102.865C79.0226 102.457 78.9151 102.056 78.7111 101.703L57.3736 62.7027L91.0486 3.30275Z" fill="#DE403A"/>
<path d="M18.3443 139.976V143H3.33233V118.052H6.82433V139.976H18.3443ZM38.8864 133.64C38.8864 135.128 38.6704 136.472 38.2384 137.672C37.8064 138.872 37.1944 139.904 36.4024 140.768C35.6344 141.632 34.7104 142.304 33.6304 142.784C32.5504 143.24 31.3744 143.468 30.1024 143.468C28.8304 143.468 27.6544 143.24 26.5744 142.784C25.4944 142.304 24.5584 141.632 23.7664 140.768C22.9984 139.904 22.3984 138.872 21.9664 137.672C21.5344 136.472 21.3184 135.128 21.3184 133.64C21.3184 132.176 21.5344 130.844 21.9664 129.644C22.3984 128.42 22.9984 127.376 23.7664 126.512C24.5584 125.648 25.4944 124.988 26.5744 124.532C27.6544 124.052 28.8304 123.812 30.1024 123.812C31.3744 123.812 32.5504 124.052 33.6304 124.532C34.7104 124.988 35.6344 125.648 36.4024 126.512C37.1944 127.376 37.8064 128.42 38.2384 129.644C38.6704 130.844 38.8864 132.176 38.8864 133.64ZM35.3944 133.64C35.3944 131.528 34.9144 129.86 33.9544 128.636C33.0184 127.388 31.7344 126.764 30.1024 126.764C28.4704 126.764 27.1744 127.388 26.2144 128.636C25.2784 129.86 24.8104 131.528 24.8104 133.64C24.8104 135.752 25.2784 137.432 26.2144 138.68C27.1744 139.904 28.4704 140.516 30.1024 140.516C31.7344 140.516 33.0184 139.904 33.9544 138.68C34.9144 137.432 35.3944 135.752 35.3944 133.64ZM56.3328 141.128C56.0448 141.32 55.4808 141.572 54.6408 141.884C53.8248 142.172 52.8648 142.316 51.7608 142.316C50.6328 142.316 49.5648 142.136 48.5568 141.776C47.5728 141.416 46.7088 140.864 45.9648 140.12C45.2208 139.352 44.6328 138.404 44.2008 137.276C43.7688 136.148 43.5528 134.804 43.5528 133.244C43.5528 131.876 43.7568 130.628 44.1648 129.5C44.5728 128.348 45.1608 127.364 45.9288 126.548C46.7208 125.708 47.6808 125.06 48.8088 124.604C49.9368 124.124 51.2088 123.884 52.6248 123.884C54.1848 123.884 55.5408 124.004 56.6928 124.244C57.8688 124.46 58.8528 124.664 59.6448 124.856V141.56C59.6448 144.44 58.9008 146.528 57.4128 147.824C55.9248 149.12 53.6688 149.768 50.6448 149.768C49.4688 149.768 48.3528 149.672 47.2968 149.48C46.2648 149.288 45.3648 149.06 44.5968 148.796L45.2088 145.88C45.8808 146.144 46.6968 146.372 47.6568 146.564C48.6408 146.78 49.6608 146.888 50.7168 146.888C52.7088 146.888 54.1368 146.492 55.0008 145.7C55.8888 144.908 56.3328 143.648 56.3328 141.92V141.128ZM56.2968 127.232C55.9608 127.136 55.5048 127.052 54.9288 126.98C54.3768 126.884 53.6208 126.836 52.6608 126.836C50.8608 126.836 49.4688 127.424 48.4848 128.6C47.5248 129.776 47.0448 131.336 47.0448 133.28C47.0448 134.36 47.1768 135.284 47.4408 136.052C47.7288 136.82 48.1008 137.456 48.5568 137.96C49.0368 138.464 49.5768 138.836 50.1768 139.076C50.8008 139.316 51.4368 139.436 52.0848 139.436C52.9728 139.436 53.7888 139.316 54.5328 139.076C55.2768 138.812 55.8648 138.512 56.2968 138.176V127.232ZM82.9333 133.64C82.9333 135.128 82.7173 136.472 82.2853 137.672C81.8533 138.872 81.2413 139.904 80.4493 140.768C79.6813 141.632 78.7573 142.304 77.6773 142.784C76.5973 143.24 75.4213 143.468 74.1493 143.468C72.8773 143.468 71.7013 143.24 70.6213 142.784C69.5413 142.304 68.6053 141.632 67.8133 140.768C67.0453 139.904 66.4453 138.872 66.0133 137.672C65.5813 136.472 65.3653 135.128 65.3653 133.64C65.3653 132.176 65.5813 130.844 66.0133 129.644C66.4453 128.42 67.0453 127.376 67.8133 126.512C68.6053 125.648 69.5413 124.988 70.6213 124.532C71.7013 124.052 72.8773 123.812 74.1493 123.812C75.4213 123.812 76.5973 124.052 77.6773 124.532C78.7573 124.988 79.6813 125.648 80.4493 126.512C81.2413 127.376 81.8533 128.42 82.2853 129.644C82.7173 130.844 82.9333 132.176 82.9333 133.64ZM79.4413 133.64C79.4413 131.528 78.9613 129.86 78.0013 128.636C77.0653 127.388 75.7813 126.764 74.1493 126.764C72.5173 126.764 71.2213 127.388 70.2613 128.636C69.3253 129.86 68.8573 131.528 68.8573 133.64C68.8573 135.752 69.3253 137.432 70.2613 138.68C71.2213 139.904 72.5173 140.516 74.1493 140.516C75.7813 140.516 77.0653 139.904 78.0013 138.68C78.9613 137.432 79.4413 135.752 79.4413 133.64Z" fill="#DE403A"/>
</svg>
