<svg width="95" height="26" viewBox="0 0 95 26" fill="none" xmlns="http://www.w3.org/2000/svg">
<path d="M12.7668 18.9V21H2.34183V3.675H4.76683V18.9H12.7668ZM27.3377 14.5C27.3377 15.5333 27.1877 16.4667 26.8877 17.3C26.5877 18.1333 26.1627 18.85 25.6127 19.45C25.0794 20.05 24.4377 20.5167 23.6877 20.85C22.9377 21.1667 22.1211 21.325 21.2377 21.325C20.3544 21.325 19.5377 21.1667 18.7877 20.85C18.0377 20.5167 17.3877 20.05 16.8377 19.45C16.3044 18.85 15.8877 18.1333 15.5877 17.3C15.2877 16.4667 15.1377 15.5333 15.1377 14.5C15.1377 13.4833 15.2877 12.5583 15.5877 11.725C15.8877 10.875 16.3044 10.15 16.8377 9.55C17.3877 8.95 18.0377 8.49167 18.7877 8.175C19.5377 7.84167 20.3544 7.675 21.2377 7.675C22.1211 7.675 22.9377 7.84167 23.6877 8.175C24.4377 8.49167 25.0794 8.95 25.6127 9.55C26.1627 10.15 26.5877 10.875 26.8877 11.725C27.1877 12.5583 27.3377 13.4833 27.3377 14.5ZM24.9127 14.5C24.9127 13.0333 24.5794 11.875 23.9127 11.025C23.2627 10.1583 22.3711 9.725 21.2377 9.725C20.1044 9.725 19.2044 10.1583 18.5377 11.025C17.8877 11.875 17.5627 13.0333 17.5627 14.5C17.5627 15.9667 17.8877 17.1333 18.5377 18C19.2044 18.85 20.1044 19.275 21.2377 19.275C22.3711 19.275 23.2627 18.85 23.9127 18C24.5794 17.1333 24.9127 15.9667 24.9127 14.5ZM39.7588 19.7C39.5588 19.8333 39.1672 20.0083 38.5838 20.225C38.0172 20.425 37.3505 20.525 36.5838 20.525C35.8005 20.525 35.0588 20.4 34.3588 20.15C33.6755 19.9 33.0755 19.5167 32.5588 19C32.0422 18.4667 31.6338 17.8083 31.3338 17.025C31.0338 16.2417 30.8838 15.3083 30.8838 14.225C30.8838 13.275 31.0255 12.4083 31.3088 11.625C31.5922 10.825 32.0005 10.1417 32.5338 9.575C33.0838 8.99167 33.7505 8.54167 34.5338 8.225C35.3172 7.89167 36.2005 7.725 37.1838 7.725C38.2672 7.725 39.2088 7.80833 40.0088 7.975C40.8255 8.125 41.5088 8.26667 42.0588 8.4V20C42.0588 22 41.5422 23.45 40.5088 24.35C39.4755 25.25 37.9088 25.7 35.8088 25.7C34.9922 25.7 34.2172 25.6333 33.4838 25.5C32.7672 25.3667 32.1422 25.2083 31.6088 25.025L32.0338 23C32.5005 23.1833 33.0672 23.3417 33.7338 23.475C34.4172 23.625 35.1255 23.7 35.8588 23.7C37.2422 23.7 38.2338 23.425 38.8338 22.875C39.4505 22.325 39.7588 21.45 39.7588 20.25V19.7ZM39.7338 10.05C39.5005 9.98333 39.1838 9.925 38.7838 9.875C38.4005 9.80833 37.8755 9.775 37.2088 9.775C35.9588 9.775 34.9922 10.1833 34.3088 11C33.6422 11.8167 33.3088 12.9 33.3088 14.25C33.3088 15 33.4005 15.6417 33.5838 16.175C33.7838 16.7083 34.0422 17.15 34.3588 17.5C34.6922 17.85 35.0672 18.1083 35.4838 18.275C35.9172 18.4417 36.3588 18.525 36.8088 18.525C37.4255 18.525 37.9922 18.4417 38.5088 18.275C39.0255 18.0917 39.4338 17.8833 39.7338 17.65V10.05ZM58.537 14.5C58.537 15.5333 58.387 16.4667 58.087 17.3C57.787 18.1333 57.362 18.85 56.812 19.45C56.2786 20.05 55.637 20.5167 54.887 20.85C54.137 21.1667 53.3203 21.325 52.437 21.325C51.5536 21.325 50.737 21.1667 49.987 20.85C49.237 20.5167 48.587 20.05 48.037 19.45C47.5036 18.85 47.087 18.1333 46.787 17.3C46.487 16.4667 46.337 15.5333 46.337 14.5C46.337 13.4833 46.487 12.5583 46.787 11.725C47.087 10.875 47.5036 10.15 48.037 9.55C48.587 8.95 49.237 8.49167 49.987 8.175C50.737 7.84167 51.5536 7.675 52.437 7.675C53.3203 7.675 54.137 7.84167 54.887 8.175C55.637 8.49167 56.2786 8.95 56.812 9.55C57.362 10.15 57.787 10.875 58.087 11.725C58.387 12.5583 58.537 13.4833 58.537 14.5ZM56.112 14.5C56.112 13.0333 55.7786 11.875 55.112 11.025C54.462 10.1583 53.5703 9.725 52.437 9.725C51.3036 9.725 50.4036 10.1583 49.737 11.025C49.087 11.875 48.762 13.0333 48.762 14.5C48.762 15.9667 49.087 17.1333 49.737 18C50.4036 18.85 51.3036 19.275 52.437 19.275C53.5703 19.275 54.462 18.85 55.112 18C55.7786 17.1333 56.112 15.9667 56.112 14.5Z" fill="#DE403A"/>
<path d="M79.1608 5.80887C79.0722 5.60354 78.9251 5.42796 78.7374 5.30341C78.5497 5.17885 78.3294 5.11066 78.1032 5.10708H74.3593C74.2609 5.10158 74.1627 5.11971 74.073 5.15992C73.9834 5.20013 73.9049 5.26122 73.8445 5.33793C73.7944 5.42526 73.7681 5.52387 73.7681 5.62419C73.7681 5.7245 73.7944 5.82311 73.8445 5.91044L76.3997 10.2781L72.375 17.2867C72.3221 17.3731 72.2942 17.4721 72.2942 17.573C72.2942 17.6739 72.3221 17.7729 72.375 17.8592C72.4252 17.9414 72.4969 18.0087 72.5825 18.0542C72.6681 18.0997 72.7645 18.1217 72.8617 18.1178H76.6056C76.83 18.1109 77.0473 18.0389 77.2304 17.9108C77.4136 17.7827 77.5543 17.6042 77.6352 17.3975L81.7161 10.2781L79.1608 5.80887ZM94.5203 0.813269C94.5686 0.725392 94.5939 0.626995 94.5939 0.527015C94.5939 0.427035 94.5686 0.328638 94.5203 0.240761C94.465 0.162594 94.3904 0.0995636 94.3037 0.0575728C94.2169 0.015582 94.1208 -0.00399478 94.0242 0.000676601H90.2054C89.9844 0.00683453 89.7703 0.0777375 89.5903 0.204358C89.4103 0.330978 89.2725 0.507586 89.1946 0.711695C89.1946 0.711695 81.0515 14.9598 80.7707 15.4215L86.1433 25.1449C86.2308 25.3499 86.3761 25.5258 86.5619 25.6518C86.7477 25.7778 86.9662 25.8486 87.1916 25.8559H90.9355C91.0338 25.8641 91.1325 25.8461 91.2214 25.8039C91.3103 25.7617 91.3861 25.6967 91.4409 25.6158C91.4919 25.5288 91.5187 25.4301 91.5187 25.3296C91.5187 25.2291 91.4919 25.1303 91.4409 25.0433L86.1152 15.4399L94.5203 0.813269Z" fill="#DE403A"/>
</svg>
