<svg width="30" height="30" viewBox="0 0 30 30" fill="none" xmlns="http://www.w3.org/2000/svg">
<path d="M10.7059 7.77189C10.6171 7.56342 10.4698 7.38517 10.2818 7.25871C10.0937 7.13226 9.87308 7.06302 9.64652 7.05939H5.89652C5.79802 7.0538 5.69964 7.07221 5.60982 7.11303C5.52001 7.15386 5.44145 7.21588 5.38089 7.29377C5.33078 7.38243 5.30444 7.48254 5.30444 7.58439C5.30444 7.68624 5.33078 7.78635 5.38089 7.87501L7.94027 12.3094L3.90902 19.425C3.8561 19.5127 3.82812 19.6132 3.82812 19.7156C3.82812 19.8181 3.8561 19.9186 3.90902 20.0063C3.95932 20.0897 4.0311 20.158 4.11686 20.2042C4.20261 20.2504 4.2992 20.2727 4.39652 20.2688H8.14652C8.37126 20.2617 8.58894 20.1886 8.77236 20.0586C8.95577 19.9285 9.09679 19.7473 9.17777 19.5375L13.2653 12.3094L10.7059 7.77189ZM26.0903 2.70002C26.1387 2.6108 26.164 2.5109 26.164 2.40939C26.164 2.30788 26.1387 2.20798 26.0903 2.11877C26.0348 2.03941 25.9602 1.97541 25.8733 1.93278C25.7864 1.89015 25.6901 1.87027 25.5934 1.87502H21.7684C21.547 1.88127 21.3326 1.95325 21.1522 2.08181C20.9719 2.21036 20.834 2.38966 20.7559 2.59689C20.7559 2.59689 12.5996 17.0625 12.3184 17.5313L17.6996 27.4031C17.7873 27.6112 17.9329 27.7899 18.119 27.9178C18.3051 28.0457 18.5239 28.1176 18.7496 28.125H22.4996C22.5981 28.1333 22.697 28.1151 22.786 28.0722C22.8751 28.0293 22.951 27.9634 23.0059 27.8813C23.0569 27.7929 23.0838 27.6927 23.0838 27.5906C23.0838 27.4886 23.0569 27.3884 23.0059 27.3L17.6715 17.55L26.0903 2.70002Z" fill="#E91818"/>
</svg>
