<svg width="19" height="19" viewBox="0 0 19 19" fill="none" xmlns="http://www.w3.org/2000/svg">
<path fill-rule="evenodd" clip-rule="evenodd" d="M10.0839 0.732005C9.63166 0.277808 8.89837 0.277808 8.4461 0.732005L0.346378 8.86611C0.309507 8.9025 0.275052 8.94136 0.243276 8.98241L0.242865 8.98288C0.0997014 9.16778 0.0198318 9.3861 0.00325582 9.60829C-0.00178587 9.67587 -0.000972193 9.74381 0.00569684 9.81127C0.0137617 9.8933 0.0303134 9.97283 0.0544579 10.049C0.108762 10.2206 0.203678 10.382 0.339208 10.5181L8.4461 18.6594L8.5552 18.7562C9.00952 19.1109 9.66645 19.0787 10.0839 18.6594L10.1803 18.5498C10.5335 18.0936 10.5014 17.4339 10.0839 17.0146L3.95476 10.8586L17.3719 10.8586L17.507 10.8508C18.083 10.7836 18.5301 10.2921 18.5301 9.6956C18.5301 9.05327 18.0116 8.53256 17.3719 8.53256L3.95496 8.53256L10.0839 2.3768L10.1803 2.26723C10.5335 1.81098 10.5014 1.15126 10.0839 0.732005Z" fill="#C60000"/>
</svg>
