<svg width="22" height="21" viewBox="0 0 22 21" fill="none" xmlns="http://www.w3.org/2000/svg">
<path d="M7.5368 1.75H3.46316C3.03098 1.75023 2.61655 1.91422 2.31095 2.20592C2.00535 2.49763 1.83356 2.89321 1.83331 3.30575V7.19425C1.83356 7.60679 2.00535 8.00237 2.31095 8.29408C2.61655 8.58578 3.03098 8.74977 3.46316 8.75H7.5368C7.96898 8.74977 8.38341 8.58578 8.68901 8.29408C8.99461 8.00237 9.1664 7.60679 9.16665 7.19425V3.30575C9.1664 2.89321 8.99461 2.49763 8.68901 2.20592C8.38341 1.91422 7.96898 1.75023 7.5368 1.75V1.75Z" stroke="#A1A1A1" stroke-opacity="0.97" stroke-width="1.5" stroke-miterlimit="10"/>
<path d="M18.5368 1.75H14.4632C14.031 1.75023 13.6165 1.91422 13.3109 2.20592C13.0053 2.49763 12.8336 2.89321 12.8333 3.30575V7.19425C12.8336 7.60679 13.0053 8.00237 13.3109 8.29408C13.6165 8.58578 14.031 8.74977 14.4632 8.75H18.5368C18.969 8.74977 19.3834 8.58578 19.689 8.29408C19.9946 8.00237 20.1664 7.60679 20.1666 7.19425V3.30575C20.1664 2.89321 19.9946 2.49763 19.689 2.20592C19.3834 1.91422 18.969 1.75023 18.5368 1.75V1.75Z" stroke="#A1A1A1" stroke-opacity="0.97" stroke-width="1.5" stroke-miterlimit="10"/>
<path d="M7.5368 12.25H3.46316C3.03098 12.2502 2.61655 12.4142 2.31095 12.7059C2.00535 12.9976 1.83356 13.3932 1.83331 13.8057V17.6943C1.83356 18.1068 2.00535 18.5024 2.31095 18.7941C2.61655 19.0858 3.03098 19.2498 3.46316 19.25H7.5368C7.96898 19.2498 8.38341 19.0858 8.68901 18.7941C8.99461 18.5024 9.1664 18.1068 9.16665 17.6943V13.8057C9.1664 13.3932 8.99461 12.9976 8.68901 12.7059C8.38341 12.4142 7.96898 12.2502 7.5368 12.25V12.25Z" stroke="#A1A1A1" stroke-opacity="0.97" stroke-width="1.5" stroke-miterlimit="10"/>
<path d="M18.5368 12.25H14.4632C14.031 12.2502 13.6165 12.4142 13.3109 12.7059C13.0053 12.9976 12.8336 13.3932 12.8333 13.8057V17.6943C12.8336 18.1068 13.0053 18.5024 13.3109 18.7941C13.6165 19.0858 14.031 19.2498 14.4632 19.25H18.5368C18.969 19.2498 19.3834 19.0858 19.689 18.7941C19.9946 18.5024 20.1664 18.1068 20.1666 17.6943V13.8057C20.1664 13.3932 19.9946 12.9976 19.689 12.7059C19.3834 12.4142 18.969 12.2502 18.5368 12.25V12.25Z" stroke="#A1A1A1" stroke-opacity="0.97" stroke-width="1.5" stroke-miterlimit="10"/>
</svg>
