<svg width="26" height="24" viewBox="0 0 26 24" fill="none" xmlns="http://www.w3.org/2000/svg">
<path fill-rule="evenodd" clip-rule="evenodd" d="M12.2764 17.9605C12.5815 17.9863 12.8961 17.9998 13.2203 17.9998C18.3434 17.9998 22.6127 11.9998 22.6127 11.9998C22.6127 11.9998 21.9139 11.0177 20.7424 9.84814L12.2764 17.9605Z" fill="#9E9E9E"/>
<path fill-rule="evenodd" clip-rule="evenodd" d="M15.8349 6.49485C15.0025 6.18695 14.1248 6 13.2205 6C6.38968 6 3.82812 12 3.82812 12C3.82812 12 4.61089 13.8335 6.46489 15.4734L10.0897 12C10.0897 10.3431 11.4914 9 13.2205 9L15.8349 6.49485Z" fill="#9E9E9E"/>
<rect width="19.4186" height="2.04406" transform="matrix(0.722027 -0.691864 0.722027 0.691864 6.01953 18.4351)" fill="#9E9E9E"/>
</svg>
