<svg width="20" height="20" viewBox="0 0 20 20" fill="none" xmlns="http://www.w3.org/2000/svg">
<path fill-rule="evenodd" clip-rule="evenodd" d="M8.40013 15.4939H3.14929C2.80429 15.4939 2.52429 15.2139 2.52429 14.8689C2.52429 14.5239 2.80429 14.2439 3.14929 14.2439H8.40013C8.74513 14.2439 9.02513 14.5239 9.02513 14.8689C9.02513 15.2139 8.74513 15.4939 8.40013 15.4939Z" fill="#CE1127"/>
<path fill-rule="evenodd" clip-rule="evenodd" d="M15.9924 7.41699H10.7424C10.3974 7.41699 10.1174 7.13699 10.1174 6.79199C10.1174 6.44699 10.3974 6.16699 10.7424 6.16699H15.9924C16.3374 6.16699 16.6174 6.44699 16.6174 6.79199C16.6174 7.13699 16.3374 7.41699 15.9924 7.41699Z" fill="#CE1127"/>
<mask id="mask0_34_14369" style="mask-type:luminance" maskUnits="userSpaceOnUse" x="2" y="4" width="6" height="6">
<path fill-rule="evenodd" clip-rule="evenodd" d="M2.5 4.16699H7.68817V9.32666H2.5V4.16699Z" fill="white"/>
</mask>
<g mask="url(#mask0_34_14369)">
<path fill-rule="evenodd" clip-rule="evenodd" d="M5.09404 5.41675C4.35321 5.41675 3.74988 6.01341 3.74988 6.74758C3.74988 7.48092 4.35321 8.07675 5.09404 8.07675C5.83571 8.07675 6.43821 7.48092 6.43821 6.74758C6.43821 6.01341 5.83571 5.41675 5.09404 5.41675ZM5.09404 9.32675C3.66404 9.32675 2.49988 8.17008 2.49988 6.74758C2.49988 5.32508 3.66404 4.16675 5.09404 4.16675C6.52488 4.16675 7.68821 5.32508 7.68821 6.74758C7.68821 8.17008 6.52488 9.32675 5.09404 9.32675Z" fill="#CE1127"/>
</g>
<path fill-rule="evenodd" clip-rule="evenodd" d="M14.4898 13.5066C13.7481 13.5066 13.1448 14.1033 13.1448 14.8366C13.1448 15.5708 13.7481 16.1666 14.4898 16.1666C15.2306 16.1666 15.8331 15.5708 15.8331 14.8366C15.8331 14.1033 15.2306 13.5066 14.4898 13.5066ZM14.4898 17.4166C13.0589 17.4166 11.8948 16.2591 11.8948 14.8366C11.8948 13.4141 13.0589 12.2566 14.4898 12.2566C15.9198 12.2566 17.0831 13.4141 17.0831 14.8366C17.0831 16.2591 15.9198 17.4166 14.4898 17.4166Z" fill="#CE1127"/>
</svg>
