<svg width="20" height="20" viewBox="0 0 20 20" fill="none" xmlns="http://www.w3.org/2000/svg">
<path d="M11.6667 8.33301C11.6667 9.24967 10.9167 9.99967 10 9.99967C9.08333 9.99967 8.33333 9.24967 8.33333 8.33301C8.33333 7.41634 9.08333 6.66634 10 6.66634C10.9167 6.66634 11.6667 7.41634 11.6667 8.33301ZM16.25 8.33301C16.25 13.3997 12.3583 16.5747 10.6917 17.6997C10.4833 17.8497 10.2417 17.9163 10 17.9163C9.75833 17.9163 9.51667 17.8497 9.3 17.6997C7.63334 16.5747 3.75 13.408 3.75 8.33301C3.75 4.76634 6.43333 2.08301 10 2.08301C13.5583 2.08301 16.25 4.76634 16.25 8.33301ZM13.3333 8.33301C13.3333 6.49134 11.8417 4.99967 10 4.99967C8.15833 4.99967 6.66667 6.49134 6.66667 8.33301C6.66667 10.1747 8.15833 11.6663 10 11.6663C11.8417 11.6663 13.3333 10.1747 13.3333 8.33301Z" fill="#FF8F7B"/>
</svg>
