<svg width="36" height="42" viewBox="0 0 36 42" fill="none" xmlns="http://www.w3.org/2000/svg">
<path d="M11.417 9.91683C11.2809 9.59718 11.055 9.32386 10.7667 9.12996C10.4784 8.93606 10.14 8.8299 9.79263 8.82433H4.04263C3.8916 8.81576 3.74075 8.84398 3.60303 8.90658C3.46531 8.96918 3.34486 9.06428 3.25201 9.1837C3.17516 9.31965 3.13478 9.47317 3.13478 9.62933C3.13478 9.78549 3.17516 9.939 3.25201 10.075L7.17638 16.8743L0.995133 27.785C0.913983 27.9194 0.871094 28.0735 0.871094 28.2306C0.871094 28.3876 0.913983 28.5417 0.995133 28.6762C1.07226 28.8041 1.18232 28.9089 1.31382 28.9797C1.44531 29.0505 1.59341 29.0847 1.74263 29.0787H7.49263C7.83723 29.0679 8.17101 28.9558 8.45225 28.7564C8.73349 28.557 8.94971 28.2791 9.07388 27.9575L15.3414 16.8743L11.417 9.91683ZM35.0064 2.13995C35.0806 2.00315 35.1195 1.84997 35.1195 1.69433C35.1195 1.53869 35.0806 1.38551 35.0064 1.2487C34.9214 1.12702 34.8069 1.0289 34.6737 0.963528C34.5404 0.898159 34.3927 0.867683 34.2445 0.874955H28.3795C28.0401 0.884541 27.7112 0.994919 27.4347 1.19203C27.1583 1.38915 26.9467 1.66408 26.827 1.98183C26.827 1.98183 14.3208 24.1625 13.8895 24.8812L22.1408 40.0181C22.2752 40.3372 22.4984 40.611 22.7837 40.8072C23.0691 41.0034 23.4047 41.1137 23.7508 41.125H29.5008C29.6517 41.1377 29.8034 41.1097 29.9399 41.044C30.0764 40.9783 30.1928 40.8772 30.277 40.7512C30.3552 40.6157 30.3964 40.462 30.3964 40.3056C30.3964 40.1491 30.3552 39.9954 30.277 39.86L22.0976 24.91L35.0064 2.13995Z" fill="#E91818"/>
</svg>
