<svg width="30" height="30" viewBox="0 0 30 30" fill="none" xmlns="http://www.w3.org/2000/svg">
<path d="M17.5 12.5C17.5 13.875 16.375 15 15 15C13.625 15 12.5 13.875 12.5 12.5C12.5 11.125 13.625 10 15 10C16.375 10 17.5 11.125 17.5 12.5ZM24.375 12.5C24.375 20.1 18.5375 24.8625 16.0375 26.55C15.725 26.775 15.3625 26.875 15 26.875C14.6375 26.875 14.275 26.775 13.95 26.55C11.45 24.8625 5.625 20.1125 5.625 12.5C5.625 7.15 9.65 3.125 15 3.125C20.3375 3.125 24.375 7.15 24.375 12.5ZM20 12.5C20 9.7375 17.7625 7.5 15 7.5C12.2375 7.5 10 9.7375 10 12.5C10 15.2625 12.2375 17.5 15 17.5C17.7625 17.5 20 15.2625 20 12.5Z" fill="#C60000"/>
</svg>
