<svg width="26" height="26" viewBox="0 0 26 26" fill="none" xmlns="http://www.w3.org/2000/svg">
<path d="M19.2285 13.0003C19.2285 13.7478 18.6218 14.3545 17.8743 14.3545C17.1269 14.3545 16.5202 13.7478 16.5202 13.0003C16.5202 12.2528 17.1269 11.6462 17.8743 11.6462C18.6218 11.6462 19.2285 12.2528 19.2285 13.0003ZM12.9993 11.6462C12.2519 11.6462 11.6452 12.2528 11.6452 13.0003C11.6452 13.7478 12.2519 14.3545 12.9993 14.3545C13.7468 14.3545 14.3535 13.7478 14.3535 13.0003C14.3535 12.2528 13.7468 11.6462 12.9993 11.6462ZM8.12435 11.6462C7.37685 11.6462 6.77018 12.2528 6.77018 13.0003C6.77018 13.7478 7.37685 14.3545 8.12435 14.3545C8.87185 14.3545 9.47852 13.7478 9.47852 13.0003C9.47852 12.2528 8.87185 11.6462 8.12435 11.6462ZM23.8327 13.0003C23.8327 18.9738 18.9728 23.8337 12.9993 23.8337C7.02585 23.8337 2.16602 18.9738 2.16602 13.0003C2.16602 7.02683 7.02585 2.16699 12.9993 2.16699C18.9728 2.16699 23.8327 7.02683 23.8327 13.0003ZM21.666 13.0003C21.666 8.22174 17.7779 4.33366 12.9993 4.33366C8.22077 4.33366 4.33268 8.22174 4.33268 13.0003C4.33268 17.7789 8.22077 21.667 12.9993 21.667C17.7779 21.667 21.666 17.7789 21.666 13.0003Z" fill="#41416E"/>
</svg>
