<svg width="16" height="15" viewBox="0 0 16 15" fill="none" xmlns="http://www.w3.org/2000/svg">
<path d="M15.3618 7.19157L12.7668 9.68506L13.3793 13.2025C13.4793 13.7767 13.2477 14.3492 12.7743 14.6958C12.2918 15.0483 11.6618 15.0968 11.1301 14.8226L7.91682 13.1584L4.7035 14.8226C4.47517 14.9409 4.22767 14.9992 3.98184 14.9992C3.65684 14.9992 3.33432 14.8967 3.05932 14.6958C2.58682 14.3492 2.35433 13.7767 2.45433 13.2025L3.06682 9.68506L0.471832 7.19157C0.0468322 6.78324 -0.105685 6.18252 0.0743153 5.62419C0.255982 5.05919 0.737645 4.65674 1.33098 4.57174L4.92183 4.05741L6.52683 0.853272C6.79016 0.326605 7.32349 0 7.91682 0C8.51016 0 9.04349 0.327438 9.30682 0.853272L10.9118 4.05741L14.5027 4.57174C15.0952 4.65674 15.5768 5.05919 15.7585 5.62419C15.9385 6.18252 15.7868 6.78324 15.3618 7.19157Z" fill="url(#paint0_linear_1488_6182)"/>
<defs>
<linearGradient id="paint0_linear_1488_6182" x1="16" y1="7.5" x2="0.5" y2="7.5" gradientUnits="userSpaceOnUse">
<stop stop-color="#FF8F7B"/>
<stop offset="1" stop-color="#FF8F7B" stop-opacity="0.31"/>
</linearGradient>
</defs>
</svg>
