<svg width="24" height="25" viewBox="0 0 24 25" fill="none" xmlns="http://www.w3.org/2000/svg">
<path d="M12 16.665C11.2089 16.665 10.4355 16.4304 9.77772 15.9909C9.11992 15.5514 8.60723 14.9267 8.30448 14.1958C8.00173 13.4649 7.92252 12.6606 8.07686 11.8847C8.2312 11.1088 8.61216 10.396 9.17157 9.83661C9.73098 9.2772 10.4437 8.89624 11.2196 8.7419C11.9956 8.58756 12.7998 8.66677 13.5307 8.96952C14.2616 9.27227 14.8864 9.78496 15.3259 10.4428C15.7654 11.1006 16 11.8739 16 12.665C16 13.7259 15.5786 14.7433 14.8284 15.4935C14.0783 16.2436 13.0609 16.665 12 16.665ZM12 10.665C11.6044 10.665 11.2178 10.7823 10.8889 11.0021C10.56 11.2219 10.3036 11.5342 10.1522 11.8997C10.0009 12.2651 9.96126 12.6673 10.0384 13.0552C10.1156 13.4432 10.3061 13.7995 10.5858 14.0793C10.8655 14.359 11.2219 14.5494 11.6098 14.6266C11.9978 14.7038 12.3999 14.6642 12.7654 14.5128C13.1308 14.3614 13.4432 14.1051 13.6629 13.7762C13.8827 13.4473 14 13.0606 14 12.665C14 12.1346 13.7893 11.6259 13.4142 11.2508C13.0391 10.8758 12.5304 10.665 12 10.665ZM12.5 22.665H11.5C10.837 22.665 10.2011 22.4016 9.73223 21.9328C9.26339 21.464 9 20.8281 9 20.165C9.00199 20.142 8.99644 20.1189 8.98418 20.0992C8.97192 20.0795 8.95361 20.0644 8.932 20.056C8.883 20.032 8.826 20.084 8.826 20.084C8.35675 20.5539 7.72042 20.8187 7.05636 20.8204C6.3923 20.8221 5.75463 20.5605 5.283 20.093L4.577 19.386C4.34458 19.1534 4.16033 18.8772 4.03481 18.5733C3.90929 18.2693 3.84497 17.9436 3.84553 17.6148C3.84609 17.286 3.91151 16.9605 4.03806 16.6569C4.16461 16.3534 4.34979 16.0779 4.583 15.846C4.59976 15.8308 4.61087 15.8104 4.6145 15.788C4.61813 15.7657 4.61408 15.7428 4.603 15.723C4.59164 15.7059 4.57638 15.6917 4.55847 15.6817C4.54057 15.6716 4.52053 15.6659 4.5 15.665C3.83696 15.665 3.20107 15.4016 2.73223 14.9328C2.26339 14.464 2 13.8281 2 13.165V12.165C2 11.502 2.26339 10.8661 2.73223 10.3973C3.20107 9.92843 3.83696 9.66504 4.5 9.66504C4.52231 9.66624 4.54448 9.66081 4.56371 9.64942C4.58293 9.63803 4.59834 9.62119 4.608 9.60104C4.61538 9.58419 4.61722 9.56543 4.61327 9.54746C4.60932 9.52949 4.59977 9.51324 4.586 9.50104C4.352 9.2689 4.16605 8.99291 4.03879 8.68885C3.91153 8.3848 3.84546 8.05864 3.84434 7.72903C3.84323 7.39941 3.9071 7.07282 4.0323 6.76791C4.1575 6.463 4.34157 6.18576 4.574 5.95204L5.282 5.24304C5.75172 4.77607 6.38715 4.51396 7.0495 4.51396C7.71185 4.51396 8.34728 4.77607 8.817 5.24304C8.83074 5.26251 8.85099 5.27644 8.87409 5.28231C8.89719 5.28817 8.92163 5.2856 8.943 5.27504C9 5.24504 9 5.16504 9 5.16504C9 4.502 9.26339 3.86611 9.73223 3.39727C10.2011 2.92843 10.837 2.66504 11.5 2.66504H12.5C13.163 2.66504 13.7989 2.92843 14.2678 3.39727C14.7366 3.86611 15 4.502 15 5.16504C15 5.16504 14.995 5.26504 15.05 5.28504C15.0702 5.29136 15.0916 5.29238 15.1123 5.288C15.1329 5.28362 15.1521 5.27399 15.168 5.26004C15.3998 5.02251 15.6768 4.83379 15.9827 4.70498C16.2885 4.57617 16.6171 4.50989 16.949 4.51004C17.2775 4.50888 17.6029 4.57299 17.9064 4.69865C18.2099 4.82431 18.4855 5.00902 18.717 5.24204L19.417 5.94204C19.8857 6.41086 20.149 7.04663 20.149 7.70954C20.149 8.37245 19.8857 9.00822 19.417 9.47704C19.403 9.49804 19.345 9.54104 19.368 9.60104C19.3706 9.61209 19.3753 9.62253 19.382 9.63174C19.3886 9.64095 19.397 9.64875 19.4067 9.6547C19.4163 9.66065 19.4271 9.66463 19.4383 9.6664C19.4495 9.66818 19.461 9.66771 19.472 9.66504C19.8023 9.66254 20.1299 9.72529 20.4359 9.84969C20.7419 9.9741 21.0204 10.1577 21.2552 10.39C21.4901 10.6223 21.6768 10.8986 21.8046 11.2032C21.9324 11.5079 21.9988 11.8347 22 12.165V13.165C22 13.8281 21.7366 14.464 21.2678 14.9328C20.7989 15.4016 20.163 15.665 19.5 15.665C19.44 15.665 19.386 15.665 19.367 15.714C19.348 15.763 19.358 15.794 19.407 15.835C19.6425 16.0664 19.8299 16.3421 19.9583 16.6463C20.0867 16.9505 20.1535 17.2771 20.155 17.6072C20.1565 17.9374 20.0926 18.2645 19.9669 18.5698C19.8413 18.8752 19.6564 19.1526 19.423 19.386L18.723 20.092C18.2533 20.559 17.6178 20.8211 16.9555 20.8211C16.2932 20.8211 15.6577 20.559 15.188 20.092C15.188 20.092 15.132 20.024 15.076 20.044C15.0561 20.0501 15.0385 20.0622 15.0258 20.0787C15.013 20.0952 15.0058 20.1152 15.005 20.136C15.0076 20.4669 14.9448 20.795 14.8202 21.1014C14.6955 21.4079 14.5115 21.6866 14.2786 21.9217C14.0458 22.1567 13.7688 22.3434 13.4636 22.471C13.1583 22.5986 12.8308 22.6645 12.5 22.665ZM9.671 18.197L9.715 18.215C10.0938 18.3745 10.4174 18.6416 10.6458 18.9833C10.8742 19.3249 10.9974 19.7261 11 20.137C10.9973 20.2047 11.0082 20.2723 11.0321 20.3357C11.0559 20.3992 11.0922 20.4572 11.1387 20.5064C11.1853 20.5556 11.2413 20.595 11.3033 20.6222C11.3654 20.6495 11.4322 20.664 11.5 20.665H12.5C12.6326 20.665 12.7598 20.6124 12.8536 20.5186C12.9473 20.4248 13 20.2976 13 20.165C13.0002 19.7453 13.1247 19.335 13.3578 18.986C13.591 18.637 13.9223 18.3649 14.31 18.204C14.6899 18.0475 15.1077 18.0069 15.5107 18.0871C15.9137 18.1673 16.284 18.3649 16.575 18.655C16.6208 18.7054 16.6762 18.746 16.7381 18.7745C16.7999 18.803 16.8668 18.8187 16.9348 18.8207C17.0029 18.8228 17.0706 18.8111 17.134 18.7864C17.1975 18.7617 17.2553 18.7245 17.304 18.677L18.004 17.977C18.0506 17.9306 18.0875 17.8754 18.1127 17.8147C18.1379 17.7539 18.1509 17.6888 18.1509 17.623C18.1509 17.5573 18.1379 17.4922 18.1127 17.4314C18.0875 17.3707 18.0506 17.3155 18.004 17.269C17.7144 16.9778 17.5154 16.6089 17.4311 16.2069C17.3468 15.8049 17.3808 15.3871 17.529 15.004C17.535 14.988 17.54 14.973 17.547 14.957L17.553 14.943C17.7106 14.5637 17.9774 14.2398 18.3194 14.0123C18.6614 13.7847 19.0632 13.6639 19.474 13.665C19.5416 13.6676 19.609 13.6566 19.6722 13.6327C19.7355 13.6088 19.7933 13.5725 19.8424 13.5259C19.8914 13.4793 19.9306 13.4234 19.9576 13.3614C19.9847 13.2994 19.9991 13.2327 20 13.165V12.165C20 12.0324 19.9473 11.9053 19.8536 11.8115C19.7598 11.7177 19.6326 11.665 19.5 11.665C19.0828 11.6697 18.6739 11.5492 18.3259 11.3191C17.9779 11.0889 17.707 10.7597 17.548 10.374L17.529 10.328C17.3772 9.9507 17.3402 9.53695 17.4225 9.13865C17.5049 8.74036 17.703 8.37523 17.992 8.08904C18.0419 8.04305 18.0822 7.98752 18.1103 7.92573C18.1384 7.86393 18.1539 7.79713 18.1557 7.72926C18.1576 7.6614 18.1458 7.59384 18.1211 7.5306C18.0965 7.46735 18.0593 7.4097 18.012 7.36104L17.312 6.66104C17.2655 6.61464 17.2103 6.57786 17.1495 6.55281C17.0888 6.52776 17.0237 6.51492 16.958 6.51504C16.8922 6.51505 16.8271 6.52804 16.7664 6.55327C16.7056 6.57849 16.6504 6.61546 16.604 6.66204C16.3083 6.95631 15.9327 7.15718 15.5237 7.23967C15.1148 7.32217 14.6906 7.28265 14.304 7.12604C13.9177 6.97143 13.5868 6.70426 13.3542 6.3592C13.1217 6.01414 12.9983 5.60714 13 5.19104C13.0025 5.12346 12.9915 5.05606 12.9676 4.9928C12.9437 4.92954 12.9074 4.8717 12.8608 4.82269C12.8142 4.77368 12.7583 4.73448 12.6963 4.7074C12.6344 4.68033 12.5676 4.66593 12.5 4.66504H11.5C11.3674 4.66504 11.2402 4.71772 11.1464 4.81149C11.0527 4.90525 11 5.03243 11 5.16504C11.003 5.58048 10.8827 5.98749 10.6544 6.33456C10.426 6.68164 10.0999 6.95318 9.71715 7.11483C9.33443 7.27648 8.91237 7.32098 8.50435 7.24269C8.09634 7.16441 7.72071 6.96686 7.425 6.67504C7.37934 6.62517 7.32415 6.58495 7.26268 6.55677C7.20122 6.52859 7.13473 6.51302 7.06714 6.51097C6.99956 6.50892 6.93225 6.52043 6.86919 6.54483C6.80613 6.56924 6.7486 6.60603 6.7 6.65304L5.988 7.36504C5.89426 7.4588 5.84161 7.58596 5.84161 7.71854C5.84161 7.85112 5.89426 7.97828 5.988 8.07204C6.28487 8.36266 6.48834 8.73519 6.57242 9.14204C6.65649 9.54888 6.61735 9.97155 6.46 10.356C6.43347 10.4224 6.39995 10.4858 6.36 10.545C6.18316 10.8789 5.91978 11.159 5.59746 11.3561C5.27514 11.5531 4.90575 11.6598 4.528 11.665C4.46029 11.6624 4.39273 11.6733 4.3293 11.6971C4.26587 11.7209 4.20785 11.7572 4.15865 11.8038C4.10945 11.8504 4.07006 11.9063 4.04282 11.9684C4.01557 12.0304 4.00101 12.0973 4 12.165V13.165C4 13.2976 4.05268 13.4248 4.14645 13.5186C4.24021 13.6124 4.36739 13.665 4.5 13.665C4.91367 13.6603 5.31938 13.7788 5.66542 14.0056C6.01146 14.2323 6.28216 14.5569 6.443 14.938L6.449 14.952C6.458 14.973 6.466 14.993 6.473 15.015C6.61912 15.3932 6.65269 15.8055 6.56964 16.2022C6.4866 16.599 6.29049 16.9633 6.005 17.251C5.95512 17.2982 5.91525 17.3549 5.88776 17.4178C5.86027 17.4806 5.84573 17.5484 5.845 17.617C5.84442 17.683 5.85704 17.7483 5.88211 17.8093C5.90718 17.8703 5.94421 17.9256 5.991 17.972L6.697 18.678C6.79076 18.7718 6.91792 18.8244 7.0505 18.8244C7.18308 18.8244 7.31024 18.7718 7.404 18.678C7.69242 18.3834 8.06147 18.1805 8.46481 18.0949C8.86815 18.0094 9.28778 18.0449 9.671 18.197Z" fill="black"/>
</svg>
