<svg width="24" height="24" viewBox="0 0 24 24" fill="none" xmlns="http://www.w3.org/2000/svg">
<g clip-path="url(#clip0_19_14591)">
<path d="M19.2243 2.77641C18.4912 2.04328 17.4542 1.75484 16.4451 2.00688L3.87851 5.14826C2.09409 5.59388 0.903837 7.12921 0.916296 8.96825C0.929712 10.8073 2.14104 12.3262 3.93121 12.747L8.23891 13.7607L9.25281 18.0676C9.67352 19.8587 11.1925 21.0701 13.0316 21.0825C13.0412 21.0825 13.0516 21.0825 13.0612 21.0825C14.8869 21.0825 16.4087 19.896 16.8534 18.1212L19.9948 5.55361C20.2459 4.54927 19.9584 3.51049 19.2243 2.77641ZM18.1347 5.09175L14.9933 17.6584C14.7125 18.7797 13.8011 19.2003 13.045 19.1677C12.2869 19.162 11.3832 18.7557 11.1187 17.6306L10.0914 13.2653L14.0531 9.30458C14.4278 8.92988 14.4278 8.32415 14.0531 7.94944C13.6784 7.57473 13.0728 7.57473 12.6981 7.94944L8.73627 11.9103L4.37107 10.8829C3.24599 10.6184 2.83869 9.71471 2.8339 8.95667C2.82911 8.19863 3.22303 7.28921 4.34428 7.00842L16.9109 3.86705C17.0019 3.84501 17.0872 3.83535 17.1667 3.83535C17.5271 3.83535 17.7705 4.03375 17.8702 4.13342C17.9899 4.25417 18.2602 4.59055 18.1347 5.09175Z" fill="black"/>
</g>
<defs>
<clipPath id="clip0_19_14591">
<rect width="24" height="24" fill="white"/>
</clipPath>
</defs>
</svg>
