<svg width="183" height="192" viewBox="0 0 183 192" fill="none" xmlns="http://www.w3.org/2000/svg">
<circle cx="93.5" cy="97.5" r="70.5" fill="url(#paint0_linear_1488_7139)"/>
<circle cx="93.9996" cy="98.0001" r="20.2584" fill="white" stroke="white" stroke-width="3.5" stroke-linecap="round" stroke-linejoin="round"/>
<path d="M85.9951 98.7631L90.8729 103.641L90.8414 103.609L101.846 92.6045" stroke="#FF8F7B" stroke-width="3.5" stroke-linecap="round" stroke-linejoin="round"/>
<circle cx="5" cy="146" r="5" fill="#FF8F7B"/>
<circle cx="5" cy="146" r="5" fill="#FF8F7B"/>
<circle cx="131.5" cy="175.5" r="1.5" fill="#FF8F7B"/>
<circle cx="131.5" cy="175.5" r="1.5" fill="#FF8F7B"/>
<circle cx="61.5" cy="189.5" r="2.5" fill="#FF8F7B"/>
<circle cx="61.5" cy="189.5" r="2.5" fill="#FF8F7B"/>
<circle cx="31.5" cy="10.5" r="10.5" fill="#FF8F7B"/>
<circle cx="31.5" cy="10.5" r="10.5" fill="#FF8F7B"/>
<circle cx="176.5" cy="31.5" r="5.5" fill="#FF8F7B"/>
<circle cx="176.5" cy="31.5" r="5.5" fill="#FF8F7B"/>
<circle cx="178.5" cy="168.5" r="4.5" fill="#FF8F7B"/>
<circle cx="178.5" cy="168.5" r="4.5" fill="#FF8F7B"/>
<circle cx="180" cy="118" r="2" fill="#FF8F7B"/>
<circle cx="180" cy="118" r="2" fill="#FF8F7B"/>
<circle cx="13" cy="78" r="1" fill="#FF8F7B"/>
<circle cx="13" cy="78" r="1" fill="#FF8F7B"/>
<circle cx="13" cy="78" r="1" fill="#FF8F7B"/>
<circle cx="13" cy="78" r="1" fill="#FF8F7B"/>
<circle cx="103.5" cy="12.5" r="2.5" fill="#FF8F7B"/>
<circle cx="103.5" cy="12.5" r="2.5" fill="#FF8F7B"/>
<defs>
<linearGradient id="paint0_linear_1488_7139" x1="93.5" y1="27" x2="93.5" y2="168" gradientUnits="userSpaceOnUse">
<stop stop-color="#FF8F7B"/>
<stop offset="1" stop-color="#FF8F7B"/>
</linearGradient>
</defs>
</svg>
