<svg width="24" height="24" viewBox="0 0 24 24" fill="none" xmlns="http://www.w3.org/2000/svg">
<path d="M17.5719 20.6143L17.572 20.6144C17.7023 20.7046 17.8511 20.749 17.999 20.749C18.1152 20.749 18.234 20.721 18.3481 20.6615C18.5975 20.5306 18.75 20.2783 18.75 19.998V7C18.75 5.61533 18.4044 4.71483 17.8447 4.15517C17.285 3.5955 16.3845 3.25 15 3.25H9C6.93321 3.25 5.25 4.93321 5.25 7V19.998C5.25 20.2773 5.40242 20.5303 5.65125 20.6612C5.90356 20.7924 6.19803 20.7732 6.42661 20.6147L6.42684 20.6145L11.2846 17.2484L17.5719 20.6143ZM17.5719 20.6143L12.7121 17.2496M17.5719 20.6143L12.7121 17.2496M12.7121 17.2496C12.7115 17.2491 12.7108 17.2487 12.7102 17.2482M12.7121 17.2496L12.7102 17.2482M12.7102 17.2482C12.2818 16.9496 11.7128 16.9512 11.2858 17.2475L12.7102 17.2482Z" stroke="#FF8F7B" stroke-width="1.5"/>
</svg>
