<svg width="52" height="50" viewBox="0 0 52 50" fill="none" xmlns="http://www.w3.org/2000/svg">
<path d="M0 16.7708C0 10.8386 0 7.87254 1.21969 5.61485C2.24751 3.71232 3.86081 2.16106 5.83944 1.17278C8.18744 0 11.2722 0 17.4417 0H34.5583C40.7278 0 43.8126 0 46.1606 1.17278C48.1392 2.16106 49.7525 3.71232 50.7803 5.61485C52 7.87254 52 10.8386 52 16.7708V33.2292C52 39.1614 52 42.1275 50.7803 44.3852C49.7525 46.2877 48.1392 47.8389 46.1606 48.8272C43.8126 50 40.7278 50 34.5583 50H17.4417C11.2722 50 8.18744 50 5.83944 48.8272C3.86081 47.8389 2.24751 46.2877 1.21969 44.3852C0 42.1275 0 39.1614 0 33.2292V16.7708Z" fill="url(#paint0_linear_30_13651)"/>
<path fill-rule="evenodd" clip-rule="evenodd" d="M27.51 6.86745C32.1128 7.08496 36.4017 8.91002 39.6775 12.062C43.1717 15.4239 45.095 19.8928 45.0932 24.6452C45.089 34.4524 36.7858 42.4319 26.5857 42.4319H26.5781C23.4805 42.4309 20.437 41.6841 17.7338 40.267L7.92261 42.7404L10.5483 33.5233C8.92869 30.8259 8.07646 27.7661 8.07779 24.6311C8.08189 14.8242 16.3844 6.84546 26.5855 6.84546L27.51 6.86745ZM18.1883 37.0469L18.7501 37.3673C21.1119 38.7143 23.8191 39.427 26.5794 39.428H26.5857C35.0642 39.428 41.9649 32.7959 41.9683 24.6442C41.9699 20.694 40.3713 16.9796 37.4671 14.1853C34.5627 11.3908 30.7005 9.85091 26.5918 9.84962C18.1067 9.84962 11.206 16.481 11.2026 24.6321C11.2014 27.4256 12.0147 30.1461 13.5545 32.4998L13.9203 33.0593L12.3663 38.5147L18.1883 37.0469ZM35.9096 28.8749C35.794 28.6894 35.4858 28.5782 35.0234 28.3557C34.5609 28.1333 32.2874 27.0581 31.8635 26.9097C31.4396 26.7616 31.1313 26.6875 30.823 27.1322C30.5148 27.5771 29.6286 28.5782 29.3587 28.8749C29.089 29.1715 28.8192 29.2086 28.3569 28.9861C27.8944 28.7637 26.4044 28.2943 24.638 26.7802C23.2633 25.6017 22.3352 24.1464 22.0654 23.7014C21.7957 23.2566 22.0367 23.016 22.2681 22.7944C22.4762 22.5952 22.7307 22.2753 22.9619 22.0158C23.1931 21.7563 23.2701 21.5708 23.4243 21.2743C23.5785 20.9777 23.5014 20.7182 23.3858 20.4958C23.2701 20.2732 22.3453 18.0856 21.96 17.1957C21.5845 16.3292 21.2033 16.4465 20.9195 16.4328C20.65 16.42 20.3415 16.4171 20.0332 16.4171C19.7249 16.4171 19.2239 16.5283 18.8 16.9733C18.3761 17.4182 17.1815 18.4935 17.1815 20.6809C17.1815 22.8686 18.8386 24.9818 19.0698 25.2784C19.301 25.5752 22.3306 30.064 26.9696 31.9893C28.0729 32.4472 28.9343 32.7206 29.6059 32.9254C30.7137 33.2637 31.7217 33.216 32.5186 33.1015C33.407 32.974 35.2546 32.0264 35.6399 30.9884C36.0253 29.95 36.0253 29.0602 35.9096 28.8749Z" fill="white"/>
<defs>
<linearGradient id="paint0_linear_30_13651" x1="26" y1="50" x2="26" y2="0" gradientUnits="userSpaceOnUse">
<stop stop-color="#25CF43"/>
<stop offset="1" stop-color="#61FD7D"/>
</linearGradient>
</defs>
</svg>
