<svg width="30" height="30" viewBox="0 0 30 30" fill="none" xmlns="http://www.w3.org/2000/svg">
<g clip-path="url(#clip0_36_14369)">
<path d="M15 4.81006C6.52875 4.81006 0 9.12256 0 15.0001C0 20.8776 6.53 25.1901 15 25.1901C23.47 25.1901 30 20.8776 30 15.0001C30 9.12256 23.4713 4.81006 15 4.81006ZM24.1675 9.60881C24.1675 10.9588 22.0112 12.0001 18.5575 12.4163C18.2325 9.19131 17.3013 7.06756 16.1038 6.27506C19.7887 6.50506 24.1663 7.80881 24.1663 9.60881H24.1675ZM15 20.5013C13.8 20.5013 12.8175 18.6263 12.74 15.0151C13.4613 15.0738 14.215 15.1051 15 15.1051C15.785 15.1051 16.5375 15.0738 17.2588 15.0151C17.1825 18.6276 16.2 20.5013 15 20.5013ZM15 12.6163C14.2625 12.6163 13.5563 12.5926 12.8875 12.5488C13.2138 10.3888 14.0375 8.61131 15 8.61131C15.9625 8.61131 16.785 10.3888 17.1112 12.5488C16.4425 12.5913 15.7375 12.6163 15 12.6163ZM13.8975 6.27256C12.7025 7.06381 11.765 9.18881 11.4425 12.4163C7.98875 12.0001 5.83125 10.9588 5.83125 9.60881C5.83125 7.80881 10.2113 6.49631 13.8975 6.27256ZM2.54625 14.6001C2.54309 13.1746 3.0028 11.7867 3.85625 10.6451C4.19375 12.5788 7.00875 14.2463 11.3212 14.8576V15.0001C11.3212 19.7151 12.42 22.7538 13.93 23.7126C7.54625 23.3113 2.54625 19.3626 2.54625 14.6001ZM16.075 23.7126C17.5837 22.7538 18.6838 19.7151 18.6838 15.0001V14.8563C22.9925 14.2463 25.8138 12.5738 26.1488 10.6438C27.0033 11.7855 27.4635 13.174 27.46 14.6001C27.455 19.3626 22.45 23.3113 16.0737 23.7126H16.075Z" fill="#222222"/>
</g>
<defs>
<clipPath id="clip0_36_14369">
<rect width="30" height="30" fill="white"/>
</clipPath>
</defs>
</svg>
